<svg width="31" height="31" viewBox="0 0 31 31" fill="none" xmlns="http://www.w3.org/2000/svg">
<path d="M7.75 3.1C7.75 2.27783 8.07661 1.48933 8.65797 0.907969C9.23933 0.326606 10.0278 0 10.85 0H20.15C20.9722 0 21.7607 0.326606 22.342 0.907969C22.9234 1.48933 23.25 2.27783 23.25 3.1V6.2H29.45C29.8611 6.2 30.2553 6.3633 30.546 6.65398C30.8367 6.94467 31 7.33891 31 7.75C31 8.16109 30.8367 8.55533 30.546 8.84601C30.2553 9.1367 29.8611 9.3 29.45 9.3H27.793L26.4492 28.1201C26.3935 28.9022 26.0436 29.6342 25.4698 30.1685C24.896 30.7029 24.141 31 23.3569 31H7.6415C6.85742 31 6.10245 30.7029 5.52867 30.1685C4.95489 29.6342 4.60492 28.9022 4.54925 28.1201L3.2085 9.3H1.55C1.13891 9.3 0.744666 9.1367 0.453984 8.84601C0.163303 8.55533 0 8.16109 0 7.75C0 7.33891 0.163303 6.94467 0.453984 6.65398C0.744666 6.3633 1.13891 6.2 1.55 6.2H7.75V3.1ZM10.85 6.2H20.15V3.1H10.85V6.2ZM6.3147 9.3L7.64305 27.9H23.3585L24.6868 9.3H6.3147Z" fill="#C8C8C8"/>
</svg>
