<svg width="18" height="15" viewBox="0 0 18 15" fill="none" xmlns="http://www.w3.org/2000/svg">
<path d="M4.84624 6.81818H11.7694V0.681818C11.7694 0.500989 11.6965 0.327566 11.5667 0.1997C11.4368 0.0718343 11.2607 0 11.0771 0H0.69232C0.508705 0 0.332611 0.0718343 0.202776 0.1997C0.0729406 0.327566 0 0.500989 0 0.681818V14.3182C0 14.499 0.0729406 14.6724 0.202776 14.8003C0.332611 14.9282 0.508705 15 0.69232 15H11.0771C11.2607 15 11.4368 14.9282 11.5667 14.8003C11.6965 14.6724 11.7694 14.499 11.7694 14.3182V8.18182H4.84624V6.81818ZM17.7974 7.01804L13.8464 3.12656L12.8672 4.09091L15.6365 6.81818H11.7694V8.18182H15.6365L12.8672 10.9091L13.8464 11.8734L17.7974 7.98196C17.9271 7.85411 18 7.68075 18 7.5C18 7.31925 17.9271 7.14589 17.7974 7.01804Z" fill="#979797"/>
</svg>
