<svg width="33" height="33" viewBox="0 0 33 33" fill="none" xmlns="http://www.w3.org/2000/svg">
<path d="M16.5 0C13.2366 0 10.0465 0.967708 7.3331 2.78075C4.61969 4.59379 2.50484 7.17074 1.25599 10.1857C0.00714891 13.2007 -0.319606 16.5183 0.31705 19.719C0.953706 22.9197 2.52518 25.8597 4.83274 28.1673C7.14031 30.4748 10.0803 32.0463 13.281 32.6829C16.4817 33.3196 19.7993 32.9929 22.8143 31.744C25.8293 30.4952 28.4062 28.3803 30.2192 25.6669C32.0323 22.9535 33 19.7634 33 16.5C32.9949 12.1255 31.2548 7.93165 28.1616 4.83841C25.0684 1.74517 20.8745 0.0051374 16.5 0ZM7.35059 27.8235C8.29981 26.2451 9.64122 24.9391 11.2444 24.0325C12.8477 23.1258 14.6582 22.6494 16.5 22.6494C18.3418 22.6494 20.1523 23.1258 21.7556 24.0325C23.3588 24.9391 24.7002 26.2451 25.6494 27.8235C23.0618 29.9218 19.8315 31.067 16.5 31.067C13.1685 31.067 9.93824 29.9218 7.35059 27.8235ZM11 15.2059C11 14.1181 11.3226 13.0547 11.9269 12.1502C12.5313 11.2458 13.3903 10.5408 14.3952 10.1245C15.4002 9.70826 16.5061 9.59934 17.573 9.81156C18.6399 10.0238 19.6199 10.5476 20.3891 11.3168C21.1583 12.086 21.6821 13.066 21.8943 14.1329C22.1065 15.1998 21.9976 16.3056 21.5813 17.3106C21.1651 18.3156 20.4601 19.1746 19.5556 19.779C18.6512 20.3833 17.5878 20.7059 16.5 20.7059C15.0413 20.7059 13.6424 20.1264 12.6109 19.095C11.5795 18.0635 11 16.6646 11 15.2059ZM27.0972 26.4712C25.5722 24.0999 23.2927 22.3117 20.6266 21.395C21.9561 20.5095 22.9653 19.2198 23.505 17.7164C24.0448 16.213 24.0865 14.5759 23.624 13.047C23.1614 11.5181 22.2192 10.1786 20.9365 9.22664C19.6539 8.27464 18.0989 7.76064 16.5016 7.76064C14.9043 7.76064 13.3494 8.27464 12.0667 9.22664C10.7841 10.1786 9.84183 11.5181 9.37928 13.047C8.91672 14.5759 8.95841 16.213 9.49819 17.7164C10.038 19.2198 11.0472 20.5095 12.3766 21.395C9.71052 22.3117 7.43104 24.0999 5.90603 26.4712C3.95649 24.4023 2.65526 21.808 2.16287 19.0083C1.67048 16.2086 2.00848 13.326 3.13518 10.7162C4.26187 8.10629 6.12796 5.88337 8.50321 4.32165C10.8785 2.75992 13.6589 1.92772 16.5016 1.92772C19.3443 1.92772 22.1248 2.75992 24.5 4.32165C26.8753 5.88337 28.7414 8.10629 29.8681 10.7162C30.9948 13.326 31.3328 16.2086 30.8404 19.0083C30.348 21.808 29.0467 24.4023 27.0972 26.4712Z" fill="#C8C8C8"/>
</svg>
