<svg width="23" height="23" viewBox="0 0 23 23" fill="none" xmlns="http://www.w3.org/2000/svg">
<path d="M4.6 15.3333V3.06667C4.6 1.37521 5.97521 0 7.66667 0H19.9333C21.6248 0 23 1.37521 23 3.06667V12.5302C23 13.3448 22.679 14.1258 22.104 14.7008L19.3008 17.504C18.7258 18.079 17.9448 18.4 17.1302 18.4H7.66667C5.97521 18.4 4.6 17.0248 4.6 15.3333ZM13.0333 4.6C12.6117 4.6 12.2667 4.945 12.2667 5.36667V7.66667H9.96667C9.545 7.66667 9.2 8.01167 9.2 8.43333V9.96667C9.2 10.3883 9.545 10.7333 9.96667 10.7333H12.2667V13.0333C12.2667 13.455 12.6117 13.8 13.0333 13.8H14.5667C14.9883 13.8 15.3333 13.455 15.3333 13.0333V10.7333H17.6333C18.055 10.7333 18.4 10.3883 18.4 9.96667V8.43333C18.4 8.01167 18.055 7.66667 17.6333 7.66667H15.3333V5.36667C15.3333 4.945 14.9883 4.6 14.5667 4.6H13.0333ZM14.1833 20.7C14.8206 20.7 15.3333 21.2127 15.3333 21.85C15.3333 22.4873 14.8206 23 14.1833 23H6.51667C2.91812 23 0 20.0819 0 16.4833V5.75C0 5.11271 0.512708 4.6 1.15 4.6C1.78729 4.6 2.3 5.11271 2.3 5.75V16.4833C2.3 18.8121 4.18792 20.7 6.51667 20.7H14.1833Z" fill="#C8C8C8"/>
</svg>
