<svg width="18" height="18" viewBox="0 0 18 18" fill="none" xmlns="http://www.w3.org/2000/svg">
<path d="M9.00346 6.54929C8.36838 6.54929 7.77366 6.78266 7.32337 7.20915C6.87521 7.63564 6.6267 8.19894 6.6267 8.80046C6.6267 9.40197 6.87521 9.96526 7.32337 10.3918C7.77366 10.8162 8.36838 11.0516 9.00346 11.0516C9.63853 11.0516 10.2333 10.8162 10.6835 10.3918C11.1317 9.96526 11.3802 9.40197 11.3802 8.80046C11.3802 8.19894 11.1317 7.63564 10.6835 7.20915C10.4636 6.99924 10.2018 6.83281 9.91341 6.71953C9.62499 6.60625 9.31568 6.54839 9.00346 6.54929ZM17.7607 11.287L16.3716 10.1624C16.4375 9.78018 16.4714 9.3899 16.4714 9.00163C16.4714 8.61336 16.4375 8.22107 16.3716 7.84084L17.7607 6.71627C17.8656 6.63118 17.9408 6.51786 17.976 6.39137C18.0113 6.26487 18.0051 6.1312 17.9582 6.00813L17.9391 5.95582C17.5568 4.94328 16.984 4.00473 16.2484 3.18563L16.2102 3.14338C16.1209 3.0439 16.0018 2.97239 15.8687 2.93827C15.7356 2.90416 15.5948 2.90903 15.4647 2.95226L13.74 3.53366C13.1028 3.03877 12.3934 2.64849 11.6245 2.3769L11.291 0.668911C11.2658 0.540243 11.1999 0.421871 11.1021 0.329522C11.0042 0.237173 10.879 0.175218 10.743 0.151888L10.6857 0.141829C9.58118 -0.0472764 8.41723 -0.0472764 7.31275 0.141829L7.2554 0.151888C7.11946 0.175218 6.99423 0.237173 6.89635 0.329522C6.79847 0.421871 6.73257 0.540243 6.70741 0.668911L6.37182 2.38494C5.61021 2.6587 4.90072 3.04803 4.27118 3.53768L2.53375 2.95226C2.40368 2.90869 2.2627 2.90364 2.12954 2.93778C1.99637 2.97191 1.87733 3.04362 1.78822 3.14338L1.74999 3.18563C1.01571 4.0056 0.443029 4.94392 0.0592832 5.95582L0.0401672 6.00813C-0.0554129 6.2596 0.0231752 6.54125 0.237699 6.71627L1.64379 7.85291C1.57794 8.23113 1.54608 8.61738 1.54608 8.99962C1.54608 9.38588 1.57794 9.77214 1.64379 10.1463L0.241947 11.283C0.137013 11.3681 0.0619094 11.4814 0.0266245 11.6079C-0.00866046 11.7344 -0.00245526 11.868 0.0444151 11.9911L0.0635312 12.0434C0.447976 13.0553 1.01508 13.9908 1.75424 14.8136L1.79247 14.8559C1.88179 14.9553 2.00084 15.0268 2.13393 15.061C2.26701 15.0951 2.40789 15.0902 2.53799 15.047L4.27543 14.4616C4.90838 14.9544 5.61355 15.3447 6.37606 15.6143L6.71166 17.3303C6.73682 17.459 6.80271 17.5774 6.90059 17.6697C6.99848 17.7621 7.12371 17.824 7.25965 17.8474L7.317 17.8574C8.43234 18.0475 9.57457 18.0475 10.6899 17.8574L10.7473 17.8474C10.8832 17.824 11.0084 17.7621 11.1063 17.6697C11.2042 17.5774 11.2701 17.459 11.2953 17.3303L11.6287 15.6223C12.3976 15.3487 13.107 14.9605 13.7442 14.4656L15.4689 15.047C15.599 15.0905 15.74 15.0956 15.8731 15.0615C16.0063 15.0273 16.1253 14.9556 16.2144 14.8559L16.2527 14.8136C16.9918 13.9868 17.5589 13.0553 17.9434 12.0434L17.9625 11.9911C18.0538 11.7417 17.9752 11.462 17.7607 11.287ZM9.00346 12.3371C6.94105 12.3371 5.26946 10.7539 5.26946 8.80046C5.26946 6.84703 6.94105 5.26378 9.00346 5.26378C11.0659 5.26378 12.7374 6.84703 12.7374 8.80046C12.7374 10.7539 11.0659 12.3371 9.00346 12.3371Z" fill="#979797"/>
</svg>
