<svg width="41" height="25" viewBox="0 0 41 25" fill="none" xmlns="http://www.w3.org/2000/svg">
<path d="M41 25H32.2143C31.4378 24.9991 30.6934 24.6225 30.1443 23.9529C29.5953 23.2833 29.2865 22.3755 29.2857 21.4286V3.57143C29.2865 2.62452 29.5953 1.71666 30.1443 1.04709C30.6934 0.377524 31.4378 0.000945494 32.2143 0H41V3.57143H32.2143V21.4286H41V25ZM26.3571 5.35714C26.356 3.93678 25.8928 2.57499 25.0692 1.57064C24.2457 0.566285 23.129 0.00141824 21.9643 0H14.6429V25H21.9643C23.129 24.9986 24.2457 24.4337 25.0692 23.4294C25.8928 22.425 26.356 21.0632 26.3571 19.6429V16.0714C26.3539 14.7492 25.9467 13.4758 25.215 12.5C25.9467 11.5242 26.3539 10.2508 26.3571 8.92857V5.35714ZM17.5714 3.57143H21.9643C22.3525 3.5719 22.7247 3.76019 22.9993 4.09497C23.2738 4.42976 23.4282 4.88369 23.4286 5.35714V8.92857C23.4282 9.40203 23.2738 9.85596 22.9993 10.1907C22.7247 10.5255 22.3525 10.7138 21.9643 10.7143H17.5714V3.57143ZM23.4286 19.6429C23.4286 20.1165 23.2743 20.5707 22.9997 20.9055C22.7251 21.2404 22.3526 21.4286 21.9643 21.4286H17.5714V14.2857H21.9643C22.3526 14.2857 22.7251 14.4739 22.9997 14.8087C23.2743 15.1436 23.4286 15.5978 23.4286 16.0714V19.6429ZM8.78571 0H2.92857C2.1521 0.000945494 1.40766 0.377524 0.858615 1.04709C0.309569 1.71666 0.000775305 2.62452 0 3.57143V25H2.92857V16.0714H8.78571V25H11.7143V3.57143C11.7135 2.62452 11.4047 1.71666 10.8557 1.04709C10.3066 0.377524 9.56218 0.000945494 8.78571 0ZM2.92857 12.5V3.57143H8.78571V12.5H2.92857Z" fill="white"/>
</svg>
